<mxfile host="65bd71144e">
    <diagram id="DKoPLOpeEgo6w3Oq9PIt" name="Page-1">
        <mxGraphModel dx="460" dy="571" grid="1" gridSize="15" guides="1" tooltips="1" connect="1" arrows="1" fold="1" page="1" pageScale="1" pageWidth="2000" pageHeight="2000" math="0" shadow="0">
            <root>
                <mxCell id="0"/>
                <mxCell id="1" parent="0"/>
                <mxCell id="qQkbFg-xFr4PaiN7kckC-26" style="edgeStyle=orthogonalEdgeStyle;rounded=0;orthogonalLoop=1;jettySize=auto;html=1;fontSize=16;" parent="1" source="qQkbFg-xFr4PaiN7kckC-1" target="qQkbFg-xFr4PaiN7kckC-4" edge="1">
                    <mxGeometry relative="1" as="geometry"/>
                </mxCell>
                <mxCell id="qQkbFg-xFr4PaiN7kckC-1" value="&lt;font style=&quot;font-size: 17px;&quot;&gt;Generate Grid&lt;/font&gt;" style="rounded=0;whiteSpace=wrap;html=1;" parent="1" vertex="1">
                    <mxGeometry x="570" y="260" width="120" height="60" as="geometry"/>
                </mxCell>
                <mxCell id="qQkbFg-xFr4PaiN7kckC-33" style="edgeStyle=orthogonalEdgeStyle;rounded=0;orthogonalLoop=1;jettySize=auto;html=1;fontSize=13;" parent="1" source="qQkbFg-xFr4PaiN7kckC-2" target="qQkbFg-xFr4PaiN7kckC-5" edge="1">
                    <mxGeometry relative="1" as="geometry"/>
                </mxCell>
                <mxCell id="qQkbFg-xFr4PaiN7kckC-2" value="&lt;font style=&quot;font-size: 17px;&quot;&gt;Swap Two Cables&lt;/font&gt;" style="rounded=0;whiteSpace=wrap;html=1;" parent="1" vertex="1">
                    <mxGeometry x="570" y="480" width="120" height="60" as="geometry"/>
                </mxCell>
                <mxCell id="qQkbFg-xFr4PaiN7kckC-31" style="edgeStyle=orthogonalEdgeStyle;rounded=0;orthogonalLoop=1;jettySize=auto;html=1;fontSize=16;" parent="1" source="qQkbFg-xFr4PaiN7kckC-4" target="qQkbFg-xFr4PaiN7kckC-2" edge="1">
                    <mxGeometry relative="1" as="geometry"/>
                </mxCell>
                <mxCell id="qQkbFg-xFr4PaiN7kckC-4" value="&lt;font style=&quot;font-size: 18px;&quot;&gt;Calculate Cost&lt;/font&gt;" style="rounded=0;whiteSpace=wrap;html=1;" parent="1" vertex="1">
                    <mxGeometry x="570" y="390" width="120" height="60" as="geometry"/>
                </mxCell>
                <mxCell id="qQkbFg-xFr4PaiN7kckC-34" style="edgeStyle=orthogonalEdgeStyle;rounded=0;orthogonalLoop=1;jettySize=auto;html=1;fontSize=13;" parent="1" source="qQkbFg-xFr4PaiN7kckC-5" target="qQkbFg-xFr4PaiN7kckC-6" edge="1">
                    <mxGeometry relative="1" as="geometry"/>
                </mxCell>
                <mxCell id="qQkbFg-xFr4PaiN7kckC-5" value="&lt;font style=&quot;font-size: 17px;&quot;&gt;Calculate New Cost&lt;/font&gt;" style="rounded=0;whiteSpace=wrap;html=1;" parent="1" vertex="1">
                    <mxGeometry x="570" y="585" width="120" height="60" as="geometry"/>
                </mxCell>
                <mxCell id="qQkbFg-xFr4PaiN7kckC-9" value="&lt;font style=&quot;font-size: 17px;&quot;&gt;Yes&lt;/font&gt;" style="edgeStyle=orthogonalEdgeStyle;rounded=0;orthogonalLoop=1;jettySize=auto;html=1;entryX=0.5;entryY=0;entryDx=0;entryDy=0;" parent="1" source="qQkbFg-xFr4PaiN7kckC-6" target="qQkbFg-xFr4PaiN7kckC-8" edge="1">
                    <mxGeometry relative="1" as="geometry"/>
                </mxCell>
                <mxCell id="qQkbFg-xFr4PaiN7kckC-15" value="No" style="edgeStyle=orthogonalEdgeStyle;rounded=0;orthogonalLoop=1;jettySize=auto;html=1;exitX=1;exitY=0.5;exitDx=0;exitDy=0;entryX=0.5;entryY=1;entryDx=0;entryDy=0;fontSize=17;" parent="1" source="qQkbFg-xFr4PaiN7kckC-6" target="qQkbFg-xFr4PaiN7kckC-12" edge="1">
                    <mxGeometry relative="1" as="geometry"/>
                </mxCell>
                <mxCell id="qQkbFg-xFr4PaiN7kckC-6" value="&lt;div&gt;New Cost &amp;gt;&lt;/div&gt;&lt;div&gt;Old Cost&lt;br&gt;&lt;/div&gt;" style="rhombus;whiteSpace=wrap;html=1;" parent="1" vertex="1">
                    <mxGeometry x="580" y="690" width="100" height="95" as="geometry"/>
                </mxCell>
                <mxCell id="qQkbFg-xFr4PaiN7kckC-30" style="edgeStyle=orthogonalEdgeStyle;rounded=0;orthogonalLoop=1;jettySize=auto;html=1;fontSize=16;entryX=0;entryY=0.75;entryDx=0;entryDy=0;" parent="1" source="qQkbFg-xFr4PaiN7kckC-8" edge="1" target="qQkbFg-xFr4PaiN7kckC-2">
                    <mxGeometry relative="1" as="geometry">
                        <Array as="points">
                            <mxPoint x="450" y="870"/>
                            <mxPoint x="450" y="510"/>
                            <mxPoint x="345" y="510"/>
                            <mxPoint x="345" y="495"/>
                            <mxPoint x="570" y="495"/>
                        </Array>
                        <mxPoint x="345" y="360" as="targetPoint"/>
                    </mxGeometry>
                </mxCell>
                <mxCell id="qQkbFg-xFr4PaiN7kckC-8" value="&lt;font style=&quot;font-size: 17px;&quot;&gt;Implement Change&lt;/font&gt;" style="rounded=0;whiteSpace=wrap;html=1;" parent="1" vertex="1">
                    <mxGeometry x="570" y="840" width="120" height="60" as="geometry"/>
                </mxCell>
                <mxCell id="qQkbFg-xFr4PaiN7kckC-18" style="edgeStyle=orthogonalEdgeStyle;rounded=0;orthogonalLoop=1;jettySize=auto;html=1;fontSize=17;" parent="1" source="qQkbFg-xFr4PaiN7kckC-12" target="qQkbFg-xFr4PaiN7kckC-16" edge="1">
                    <mxGeometry relative="1" as="geometry"/>
                </mxCell>
                <mxCell id="qQkbFg-xFr4PaiN7kckC-12" value="&lt;font style=&quot;font-size: 17px;&quot;&gt;Revert Change&lt;br&gt;&lt;/font&gt;" style="rounded=0;whiteSpace=wrap;html=1;" parent="1" vertex="1">
                    <mxGeometry x="750" y="585" width="120" height="60" as="geometry"/>
                </mxCell>
                <mxCell id="qQkbFg-xFr4PaiN7kckC-17" value="No" style="edgeStyle=orthogonalEdgeStyle;rounded=0;orthogonalLoop=1;jettySize=auto;html=1;entryX=1;entryY=0.5;entryDx=0;entryDy=0;fontSize=17;" parent="1" source="qQkbFg-xFr4PaiN7kckC-16" target="qQkbFg-xFr4PaiN7kckC-4" edge="1">
                    <mxGeometry relative="1" as="geometry"/>
                </mxCell>
                <mxCell id="qQkbFg-xFr4PaiN7kckC-25" value="Yes" style="edgeStyle=orthogonalEdgeStyle;rounded=0;orthogonalLoop=1;jettySize=auto;html=1;fontSize=16;" parent="1" source="qQkbFg-xFr4PaiN7kckC-16" target="qQkbFg-xFr4PaiN7kckC-21" edge="1">
                    <mxGeometry relative="1" as="geometry"/>
                </mxCell>
                <mxCell id="qQkbFg-xFr4PaiN7kckC-16" value="&lt;div style=&quot;font-size: 16px;&quot;&gt;&lt;font style=&quot;font-size: 16px;&quot;&gt;Restart&lt;/font&gt;&lt;/div&gt;&lt;div style=&quot;font-size: 16px;&quot;&gt;&lt;font style=&quot;font-size: 16px;&quot;&gt;Threshold&lt;/font&gt;&lt;/div&gt;&lt;div style=&quot;font-size: 16px;&quot;&gt;&lt;font style=&quot;font-size: 16px;&quot;&gt;Reached&lt;br&gt;&lt;/font&gt;&lt;/div&gt;" style="rhombus;whiteSpace=wrap;html=1;fontSize=17;" parent="1" vertex="1">
                    <mxGeometry x="760" y="370" width="100" height="100" as="geometry"/>
                </mxCell>
                <mxCell id="qQkbFg-xFr4PaiN7kckC-19" value="End" style="ellipse;whiteSpace=wrap;html=1;aspect=fixed;fontSize=17;" parent="1" vertex="1">
                    <mxGeometry x="960" y="250" width="80" height="80" as="geometry"/>
                </mxCell>
                <mxCell id="qQkbFg-xFr4PaiN7kckC-23" value="Yes" style="edgeStyle=orthogonalEdgeStyle;rounded=0;orthogonalLoop=1;jettySize=auto;html=1;entryX=0;entryY=0.5;entryDx=0;entryDy=0;fontSize=19;" parent="1" source="qQkbFg-xFr4PaiN7kckC-21" target="qQkbFg-xFr4PaiN7kckC-19" edge="1">
                    <mxGeometry relative="1" as="geometry"/>
                </mxCell>
                <mxCell id="qQkbFg-xFr4PaiN7kckC-24" value="No" style="edgeStyle=orthogonalEdgeStyle;rounded=0;orthogonalLoop=1;jettySize=auto;html=1;fontSize=19;" parent="1" source="qQkbFg-xFr4PaiN7kckC-21" target="qQkbFg-xFr4PaiN7kckC-1" edge="1">
                    <mxGeometry relative="1" as="geometry"/>
                </mxCell>
                <mxCell id="qQkbFg-xFr4PaiN7kckC-21" value="Iteration threshold reached" style="rhombus;whiteSpace=wrap;html=1;fontSize=17;" parent="1" vertex="1">
                    <mxGeometry x="760" y="240" width="100" height="100" as="geometry"/>
                </mxCell>
            </root>
        </mxGraphModel>
    </diagram>
</mxfile>